<mxfile host="app.diagrams.net" modified="2021-05-13T06:06:17.215Z" agent="5.0 (Windows NT 10.0; Win64; x64) AppleWebKit/537.36 (KHTML, like Gecko) Chrome/90.0.4430.212 Safari/537.36" etag="CuntGHmxubLTOY4LrI16" version="14.6.12" type="github">
  <diagram id="C5RBs43oDa-KdzZeNtuy" name="Page-1">
    <mxGraphModel dx="447" dy="250" grid="1" gridSize="10" guides="1" tooltips="1" connect="1" arrows="1" fold="1" page="1" pageScale="1" pageWidth="827" pageHeight="1169" math="0" shadow="0">
      <root>
        <mxCell id="WIyWlLk6GJQsqaUBKTNV-0" />
        <mxCell id="WIyWlLk6GJQsqaUBKTNV-1" parent="WIyWlLk6GJQsqaUBKTNV-0" />
        <mxCell id="I0QIrWUpqHl4fJR1LGui-2" value="" style="edgeStyle=orthogonalEdgeStyle;rounded=0;orthogonalLoop=1;jettySize=auto;html=1;" edge="1" parent="WIyWlLk6GJQsqaUBKTNV-1" source="I0QIrWUpqHl4fJR1LGui-0" target="I0QIrWUpqHl4fJR1LGui-1">
          <mxGeometry relative="1" as="geometry" />
        </mxCell>
        <mxCell id="I0QIrWUpqHl4fJR1LGui-0" value="&lt;font style=&quot;font-size: 8px&quot;&gt;CreateSoundFromImage&lt;/font&gt;" style="html=1;dashed=0;whitespace=wrap;shape=mxgraph.dfd.start" vertex="1" parent="WIyWlLk6GJQsqaUBKTNV-1">
          <mxGeometry x="270" y="80" width="100" height="40" as="geometry" />
        </mxCell>
        <mxCell id="I0QIrWUpqHl4fJR1LGui-4" value="" style="edgeStyle=orthogonalEdgeStyle;rounded=0;orthogonalLoop=1;jettySize=auto;html=1;" edge="1" parent="WIyWlLk6GJQsqaUBKTNV-1" source="I0QIrWUpqHl4fJR1LGui-1" target="I0QIrWUpqHl4fJR1LGui-3">
          <mxGeometry relative="1" as="geometry" />
        </mxCell>
        <mxCell id="I0QIrWUpqHl4fJR1LGui-1" value="&lt;font style=&quot;font-size: 8px&quot;&gt;Compile and execute&lt;br&gt;the needed files&lt;/font&gt;" style="html=1;dashed=0;whitespace=wrap;" vertex="1" parent="WIyWlLk6GJQsqaUBKTNV-1">
          <mxGeometry x="270" y="140" width="100" height="30" as="geometry" />
        </mxCell>
        <mxCell id="I0QIrWUpqHl4fJR1LGui-8" value="" style="edgeStyle=orthogonalEdgeStyle;rounded=0;orthogonalLoop=1;jettySize=auto;html=1;" edge="1" parent="WIyWlLk6GJQsqaUBKTNV-1" source="I0QIrWUpqHl4fJR1LGui-3" target="I0QIrWUpqHl4fJR1LGui-7">
          <mxGeometry relative="1" as="geometry" />
        </mxCell>
        <mxCell id="I0QIrWUpqHl4fJR1LGui-3" value="&lt;font style=&quot;font-size: 8px&quot;&gt;Capture an image&lt;/font&gt;" style="html=1;dashed=0;whitespace=wrap;" vertex="1" parent="WIyWlLk6GJQsqaUBKTNV-1">
          <mxGeometry x="275" y="190" width="90" height="20" as="geometry" />
        </mxCell>
        <mxCell id="I0QIrWUpqHl4fJR1LGui-10" value="" style="edgeStyle=orthogonalEdgeStyle;rounded=0;orthogonalLoop=1;jettySize=auto;html=1;" edge="1" parent="WIyWlLk6GJQsqaUBKTNV-1" source="I0QIrWUpqHl4fJR1LGui-7" target="I0QIrWUpqHl4fJR1LGui-9">
          <mxGeometry relative="1" as="geometry" />
        </mxCell>
        <mxCell id="I0QIrWUpqHl4fJR1LGui-7" value="&lt;span style=&quot;font-size: 8px&quot;&gt;Compress the image&lt;/span&gt;" style="html=1;dashed=0;whitespace=wrap;" vertex="1" parent="WIyWlLk6GJQsqaUBKTNV-1">
          <mxGeometry x="275" y="230" width="90" height="20" as="geometry" />
        </mxCell>
        <mxCell id="I0QIrWUpqHl4fJR1LGui-13" style="edgeStyle=orthogonalEdgeStyle;rounded=0;orthogonalLoop=1;jettySize=auto;html=1;entryX=0.5;entryY=0;entryDx=0;entryDy=0;" edge="1" parent="WIyWlLk6GJQsqaUBKTNV-1" source="I0QIrWUpqHl4fJR1LGui-9" target="I0QIrWUpqHl4fJR1LGui-11">
          <mxGeometry relative="1" as="geometry" />
        </mxCell>
        <mxCell id="I0QIrWUpqHl4fJR1LGui-9" value="&lt;font style=&quot;font-size: 8px&quot;&gt;Convert the compressed &lt;br&gt;image to bits/binary&lt;/font&gt;" style="html=1;dashed=0;whitespace=wrap;" vertex="1" parent="WIyWlLk6GJQsqaUBKTNV-1">
          <mxGeometry x="270" y="270" width="100" height="40" as="geometry" />
        </mxCell>
        <mxCell id="I0QIrWUpqHl4fJR1LGui-19" style="edgeStyle=orthogonalEdgeStyle;rounded=0;orthogonalLoop=1;jettySize=auto;html=1;exitX=0.5;exitY=1;exitDx=0;exitDy=0;entryX=0;entryY=0.5;entryDx=0;entryDy=0;" edge="1" parent="WIyWlLk6GJQsqaUBKTNV-1" source="I0QIrWUpqHl4fJR1LGui-11" target="I0QIrWUpqHl4fJR1LGui-17">
          <mxGeometry relative="1" as="geometry" />
        </mxCell>
        <mxCell id="I0QIrWUpqHl4fJR1LGui-11" value="&lt;font style=&quot;font-size: 8px&quot;&gt;Convert the binary image&lt;br&gt;&amp;nbsp;to audio&lt;/font&gt;" style="html=1;dashed=0;whitespace=wrap;" vertex="1" parent="WIyWlLk6GJQsqaUBKTNV-1">
          <mxGeometry x="270" y="330" width="100" height="30" as="geometry" />
        </mxCell>
        <mxCell id="I0QIrWUpqHl4fJR1LGui-14" value="&lt;font style=&quot;font-size: 10px&quot;&gt;Tx&lt;/font&gt;" style="strokeWidth=2;html=1;shape=mxgraph.flowchart.document2;whiteSpace=wrap;size=0.25;" vertex="1" parent="WIyWlLk6GJQsqaUBKTNV-1">
          <mxGeometry x="290" y="40" width="60" height="20" as="geometry" />
        </mxCell>
        <mxCell id="I0QIrWUpqHl4fJR1LGui-15" value="&lt;font style=&quot;font-size: 10px&quot;&gt;Rx&lt;/font&gt;" style="strokeWidth=2;html=1;shape=mxgraph.flowchart.document2;whiteSpace=wrap;size=0.25;" vertex="1" parent="WIyWlLk6GJQsqaUBKTNV-1">
          <mxGeometry x="540" y="40" width="60" height="20" as="geometry" />
        </mxCell>
        <mxCell id="I0QIrWUpqHl4fJR1LGui-17" value="&lt;font style=&quot;font-size: 6px&quot;&gt;Transmit&amp;nbsp; audio to receiver&lt;br&gt;(play the audio file)&lt;/font&gt;" style="html=1;dashed=0;whitespace=wrap;" vertex="1" parent="WIyWlLk6GJQsqaUBKTNV-1">
          <mxGeometry x="380" y="380" width="80" height="30" as="geometry" />
        </mxCell>
      </root>
    </mxGraphModel>
  </diagram>
</mxfile>
